<svg xmlns="http://www.w3.org/2000/svg" xmlns:xlink="http://www.w3.org/1999/xlink" width="500" zoomAndPan="magnify" viewBox="0 0 375 374.999991" height="500" preserveAspectRatio="xMidYMid meet" version="1.0"><path fill="#273376" d="M 338.65625 76.605469 C 316.75 46.78125 286.242188 23.675781 250.785156 10.949219 L 250.785156 120.542969 L 338.65625 76.605469 " fill-opacity="1" fill-rule="nonzero"/><path fill="#273376" d="M 124.425781 120.542969 L 124.425781 10.84375 C 88.878906 23.53125 58.289062 46.640625 36.332031 76.496094 L 124.421875 120.542969 L 124.425781 120.542969 " fill-opacity="1" fill-rule="nonzero"/><path fill="#273376" d="M 124.421875 254.359375 L 36.332031 298.410156 C 58.289062 328.265625 88.878906 351.375 124.425781 364.0625 L 124.425781 254.359375 L 124.421875 254.359375 " fill-opacity="1" fill-rule="nonzero"/><path fill="#273376" d="M 250.785156 363.957031 C 286.242188 351.226562 316.75 328.121094 338.65625 298.296875 L 250.785156 254.359375 L 250.785156 363.957031 " fill-opacity="1" fill-rule="nonzero"/><path fill="#ffffff" d="M 124.425781 120.542969 L 124.421875 120.542969 L 36.332031 76.496094 C 30.078125 84.996094 24.53125 94.039062 19.765625 103.550781 L 60.335938 123.816406 L 18.867188 123.816406 L 12.273438 120.546875 C 11.804688 121.785156 11.339844 123.027344 10.894531 124.273438 L 124.425781 124.273438 L 124.425781 120.542969 " fill-opacity="1" fill-rule="nonzero"/><path fill="#ffffff" d="M 250.785156 124.273438 L 271.582031 124.273438 L 345.855469 87.140625 C 343.574219 83.539062 341.171875 80.03125 338.65625 76.605469 L 250.785156 120.542969 L 250.785156 124.273438 " fill-opacity="1" fill-rule="nonzero"/><path fill="#ffffff" d="M 356.039062 250.890625 L 362.691406 254.1875 C 363.140625 253.007812 363.582031 251.824219 364.007812 250.632812 L 250.785156 250.632812 L 250.785156 254.359375 L 338.65625 298.296875 C 344.90625 289.78125 350.457031 280.722656 355.222656 271.195312 L 314.570312 250.890625 L 356.039062 250.890625 " fill-opacity="1" fill-rule="nonzero"/><path fill="#ffffff" d="M 60.324219 250.632812 L 10.894531 250.632812 C 13.398438 257.625 16.308594 264.429688 19.59375 271.011719 L 60.316406 250.632812 L 60.324219 250.632812 " fill-opacity="1" fill-rule="nonzero"/><path fill="#ffffff" d="M 124.425781 254.359375 L 124.425781 250.632812 L 102.921875 250.632812 L 28.953125 287.617188 C 31.289062 291.300781 33.75 294.902344 36.332031 298.410156 L 124.421875 254.359375 L 124.425781 254.359375 " fill-opacity="1" fill-rule="nonzero"/><path fill="#ffffff" d="M 364.007812 124.273438 C 361.484375 117.21875 358.550781 110.367188 355.234375 103.734375 L 314.191406 124.273438 L 364.007812 124.273438 " fill-opacity="1" fill-rule="nonzero"/><path fill="#ffffff" d="M 250.785156 250.632812 L 364.007812 250.632812 C 366.933594 242.453125 369.320312 234.015625 371.097656 225.359375 L 225.511719 225.359375 L 225.511719 371.0625 C 234.167969 369.277344 242.605469 366.886719 250.785156 363.957031 L 250.785156 250.632812 " fill-opacity="1" fill-rule="nonzero"/><path fill="#ffffff" d="M 225.511719 149.546875 L 371.097656 149.546875 C 369.320312 140.886719 366.933594 132.449219 364.007812 124.273438 L 314.191406 124.273438 L 314.1875 124.277344 L 271.578125 124.277344 L 271.582031 124.273438 L 250.785156 124.273438 L 250.785156 10.949219 C 242.605469 8.015625 234.167969 5.625 225.511719 3.839844 L 225.511719 149.546875 " fill-opacity="1" fill-rule="nonzero"/><path fill="#ffffff" d="M 149.699219 225.359375 L 3.808594 225.359375 C 5.585938 234.015625 7.96875 242.453125 10.894531 250.632812 L 60.324219 250.632812 L 60.722656 250.433594 L 103.320312 250.433594 L 102.921875 250.632812 L 124.425781 250.632812 L 124.425781 364.0625 C 132.605469 366.980469 141.039062 369.359375 149.699219 371.132812 L 149.699219 225.359375 " fill-opacity="1" fill-rule="nonzero"/><path fill="#ffffff" d="M 149.699219 149.546875 L 149.699219 3.773438 C 141.039062 5.546875 132.605469 7.921875 124.425781 10.84375 L 124.425781 124.273438 L 10.894531 124.273438 C 7.96875 132.449219 5.585938 140.886719 3.808594 149.546875 L 149.699219 149.546875 " fill-opacity="1" fill-rule="nonzero"/><path fill="#d21d2c" d="M 225.511719 225.359375 L 371.097656 225.359375 C 373.613281 213.117188 374.929688 200.4375 374.929688 187.453125 C 374.929688 174.464844 373.613281 161.789062 371.097656 149.546875 L 225.511719 149.546875 L 225.511719 3.839844 C 213.222656 1.304688 200.492188 -0.0273438 187.453125 -0.0273438 C 174.519531 -0.0273438 161.894531 1.28125 149.699219 3.773438 L 149.699219 149.546875 L 3.808594 149.546875 C 1.292969 161.789062 -0.0273438 174.464844 -0.0273438 187.453125 C -0.0273438 200.4375 1.292969 213.117188 3.808594 225.359375 L 149.699219 225.359375 L 149.699219 371.132812 C 161.894531 373.625 174.519531 374.929688 187.453125 374.929688 C 200.492188 374.929688 213.222656 373.597656 225.511719 371.0625 L 225.511719 225.359375 " fill-opacity="1" fill-rule="nonzero"/><path fill="#d21d2c" d="M 60.335938 123.816406 L 19.765625 103.550781 C 16.996094 109.066406 14.496094 114.738281 12.273438 120.546875 L 18.867188 123.816406 L 60.335938 123.816406 " fill-opacity="1" fill-rule="nonzero"/><path fill="#d21d2c" d="M 271.578125 124.277344 L 314.1875 124.277344 L 314.191406 124.273438 L 355.234375 103.734375 C 352.382812 98.03125 349.253906 92.492188 345.855469 87.140625 L 271.582031 124.273438 L 271.578125 124.277344 " fill-opacity="1" fill-rule="nonzero"/><path fill="#d21d2c" d="M 356.039062 250.890625 L 314.570312 250.890625 L 355.222656 271.195312 C 357.980469 265.679688 360.476562 260.003906 362.691406 254.1875 L 356.039062 250.890625 " fill-opacity="1" fill-rule="nonzero"/><path fill="#d21d2c" d="M 102.921875 250.632812 L 103.320312 250.433594 L 60.722656 250.433594 L 60.316406 250.632812 L 19.59375 271.011719 C 22.4375 276.71875 25.5625 282.257812 28.953125 287.617188 L 102.921875 250.632812 " fill-opacity="1" fill-rule="nonzero"/></svg>