<svg xmlns="http://www.w3.org/2000/svg" xmlns:xlink="http://www.w3.org/1999/xlink" width="500" zoomAndPan="magnify" viewBox="0 0 375 374.999991" height="500" preserveAspectRatio="xMidYMid meet" version="1.0"><path fill="#ffffff" d="M 250 10.660156 L 250 364.339844 C 230.46875 371.257812 209.433594 375 187.5 375 C 165.566406 375 144.53125 371.257812 125 364.339844 L 125 10.660156 C 144.53125 3.742188 165.566406 0 187.5 0 C 209.433594 0 230.46875 3.742188 250 10.660156 Z M 250 10.660156 " fill-opacity="1" fill-rule="evenodd"/><path fill="#e94b35" d="M 250 364.339844 L 250 10.660156 C 322.835938 36.417969 375 105.875 375 187.5 C 375 269.125 322.835938 338.582031 250 364.339844 Z M 250 364.339844 " fill-opacity="1" fill-rule="evenodd"/><path fill="#1aaf5d" d="M 125 10.660156 L 125 364.339844 C 52.164062 338.582031 0 269.125 0 187.5 C 0 105.875 52.164062 36.417969 125 10.660156 Z M 125 10.660156 " fill-opacity="1" fill-rule="evenodd"/></svg>